# xmcd
#
# Track frame offsets:
#	150
#	17211
#	32827
#	53473
#	67236
#	83275
#	96672
#	120173
#	139109
#	172242
#	199719
#	220007
#
# Disc length: 3075 seconds
#
# Revision: 1
# Processed by: cddbd v1.4PL0 Copyright (c) Steve Scherf et al.
# Submitted via: audiograbber 1.80.04
#
DISCID=a30c010c
DTITLE=Stan Middleton Band - Plan B
DYEAR=2002
DGENRE=Funk
TTITLE0=Heaven Knows
TTITLE1=Too Little, Too Late, Too Bad Boy
TTITLE2=Late Again
TTITLE3=Covered It Up
TTITLE4=I'm A Man Who Cries
TTITLE5=Moon's Lookin' Down
TTITLE6=Shaky Ground
TTITLE7=Dust Off My Vices
TTITLE8=Give It All To You
TTITLE9=Give It Up
TTITLE10=Fly Away
TTITLE11=Only Thurmon Knows (Bonus Track)
EXTD=
EXTT0=
EXTT1=
EXTT2=
EXTT3=
EXTT4=
EXTT5=
EXTT6=
EXTT7=
EXTT8=
EXTT9=
EXTT10=
EXTT11=
PLAYORDER=
